<?xml version="1.0" encoding="utf-8" standalone="no"?>
<!DOCTYPE svg PUBLIC "-//W3C//DTD SVG 1.1//EN"
  "http://www.w3.org/Graphics/SVG/1.1/DTD/svg11.dtd">
<svg xmlns:xlink="http://www.w3.org/1999/xlink" width="460.8pt" height="345.6pt" viewBox="0 0 460.8 345.6" xmlns="http://www.w3.org/2000/svg" version="1.1">
 <metadata>
  <rdf:RDF xmlns:dc="http://purl.org/dc/elements/1.1/" xmlns:cc="http://creativecommons.org/ns#" xmlns:rdf="http://www.w3.org/1999/02/22-rdf-syntax-ns#">
   <cc:Work>
    <dc:type rdf:resource="http://purl.org/dc/dcmitype/StillImage"/>
    <dc:date>2024-09-18T12:10:06.423245</dc:date>
    <dc:format>image/svg+xml</dc:format>
    <dc:creator>
     <cc:Agent>
      <dc:title>Matplotlib v3.8.3, https://matplotlib.org/</dc:title>
     </cc:Agent>
    </dc:creator>
   </cc:Work>
  </rdf:RDF>
 </metadata>
 <defs>
  <style type="text/css">*{stroke-linejoin: round; stroke-linecap: butt}</style>
 </defs>
 <g id="figure_1">
  <g id="patch_1">
   <path d="M 0 345.6 
L 460.8 345.6 
L 460.8 0 
L 0 0 
z
" style="fill: #ffffff"/>
  </g>
  <g id="axes_1">
   <g id="patch_2">
    <path d="M 57.6 307.584 
L 414.72 307.584 
L 414.72 41.472 
L 57.6 41.472 
z
" style="fill: #ffffff"/>
   </g>
   <g id="patch_3">
    <path d="M 57.6 307.584 
L 70.742016 307.584 
L 70.742016 307.584 
L 57.6 307.584 
z
" clip-path="url(#p14beb03c06)" style="fill: #2ca02c; fill-opacity: 0.5; stroke: #000000; stroke-linejoin: miter"/>
   </g>
   <g id="patch_4">
    <path d="M 70.742016 307.584 
L 83.884032 307.584 
L 83.884032 307.584 
L 70.742016 307.584 
z
" clip-path="url(#p14beb03c06)" style="fill: #2ca02c; fill-opacity: 0.5; stroke: #000000; stroke-linejoin: miter"/>
   </g>
   <g id="patch_5">
    <path d="M 83.884032 307.584 
L 97.026048 307.584 
L 97.026048 307.584 
L 83.884032 307.584 
z
" clip-path="url(#p14beb03c06)" style="fill: #2ca02c; fill-opacity: 0.5; stroke: #000000; stroke-linejoin: miter"/>
   </g>
   <g id="patch_6">
    <path d="M 97.026048 307.584 
L 110.168064 307.584 
L 110.168064 307.584 
L 97.026048 307.584 
z
" clip-path="url(#p14beb03c06)" style="fill: #2ca02c; fill-opacity: 0.5; stroke: #000000; stroke-linejoin: miter"/>
   </g>
   <g id="patch_7">
    <path d="M 110.168064 307.584 
L 123.31008 307.584 
L 123.31008 307.584 
L 110.168064 307.584 
z
" clip-path="url(#p14beb03c06)" style="fill: #2ca02c; fill-opacity: 0.5; stroke: #000000; stroke-linejoin: miter"/>
   </g>
   <g id="patch_8">
    <path d="M 123.31008 307.584 
L 136.452096 307.584 
L 136.452096 305.987328 
L 123.31008 305.987328 
z
" clip-path="url(#p14beb03c06)" style="fill: #2ca02c; fill-opacity: 0.5; stroke: #000000; stroke-linejoin: miter"/>
   </g>
   <g id="patch_9">
    <path d="M 136.452096 307.584 
L 149.594112 307.584 
L 149.594112 303.326208 
L 136.452096 303.326208 
z
" clip-path="url(#p14beb03c06)" style="fill: #2ca02c; fill-opacity: 0.5; stroke: #000000; stroke-linejoin: miter"/>
   </g>
   <g id="patch_10">
    <path d="M 149.594112 307.584 
L 162.736128 307.584 
L 162.736128 303.326208 
L 149.594112 303.326208 
z
" clip-path="url(#p14beb03c06)" style="fill: #2ca02c; fill-opacity: 0.5; stroke: #000000; stroke-linejoin: miter"/>
   </g>
   <g id="patch_11">
    <path d="M 162.736128 307.584 
L 175.878144 307.584 
L 175.878144 298.003968 
L 162.736128 298.003968 
z
" clip-path="url(#p14beb03c06)" style="fill: #2ca02c; fill-opacity: 0.5; stroke: #000000; stroke-linejoin: miter"/>
   </g>
   <g id="patch_12">
    <path d="M 175.878144 307.584 
L 189.02016 307.584 
L 189.02016 299.60064 
L 175.878144 299.60064 
z
" clip-path="url(#p14beb03c06)" style="fill: #2ca02c; fill-opacity: 0.5; stroke: #000000; stroke-linejoin: miter"/>
   </g>
   <g id="patch_13">
    <path d="M 189.02016 307.584 
L 202.162176 307.584 
L 202.162176 297.471744 
L 189.02016 297.471744 
z
" clip-path="url(#p14beb03c06)" style="fill: #2ca02c; fill-opacity: 0.5; stroke: #000000; stroke-linejoin: miter"/>
   </g>
   <g id="patch_14">
    <path d="M 202.162176 307.584 
L 215.304192 307.584 
L 215.304192 300.665088 
L 202.162176 300.665088 
z
" clip-path="url(#p14beb03c06)" style="fill: #2ca02c; fill-opacity: 0.5; stroke: #000000; stroke-linejoin: miter"/>
   </g>
   <g id="patch_15">
    <path d="M 215.304192 307.584 
L 228.446208 307.584 
L 228.446208 298.003968 
L 215.304192 298.003968 
z
" clip-path="url(#p14beb03c06)" style="fill: #2ca02c; fill-opacity: 0.5; stroke: #000000; stroke-linejoin: miter"/>
   </g>
   <g id="patch_16">
    <path d="M 228.446208 307.584 
L 241.588224 307.584 
L 241.588224 297.471744 
L 228.446208 297.471744 
z
" clip-path="url(#p14beb03c06)" style="fill: #2ca02c; fill-opacity: 0.5; stroke: #000000; stroke-linejoin: miter"/>
   </g>
   <g id="patch_17">
    <path d="M 241.588224 307.584 
L 254.73024 307.584 
L 254.73024 295.342848 
L 241.588224 295.342848 
z
" clip-path="url(#p14beb03c06)" style="fill: #2ca02c; fill-opacity: 0.5; stroke: #000000; stroke-linejoin: miter"/>
   </g>
   <g id="patch_18">
    <path d="M 254.73024 307.584 
L 267.872256 307.584 
L 267.872256 284.698368 
L 254.73024 284.698368 
z
" clip-path="url(#p14beb03c06)" style="fill: #2ca02c; fill-opacity: 0.5; stroke: #000000; stroke-linejoin: miter"/>
   </g>
   <g id="patch_19">
    <path d="M 267.872256 307.584 
L 281.014272 307.584 
L 281.014272 283.63392 
L 267.872256 283.63392 
z
" clip-path="url(#p14beb03c06)" style="fill: #2ca02c; fill-opacity: 0.5; stroke: #000000; stroke-linejoin: miter"/>
   </g>
   <g id="patch_20">
    <path d="M 281.014272 307.584 
L 294.156288 307.584 
L 294.156288 281.505024 
L 281.014272 281.505024 
z
" clip-path="url(#p14beb03c06)" style="fill: #2ca02c; fill-opacity: 0.5; stroke: #000000; stroke-linejoin: miter"/>
   </g>
   <g id="patch_21">
    <path d="M 294.156288 307.584 
L 307.298304 307.584 
L 307.298304 293.746176 
L 294.156288 293.746176 
z
" clip-path="url(#p14beb03c06)" style="fill: #2ca02c; fill-opacity: 0.5; stroke: #000000; stroke-linejoin: miter"/>
   </g>
   <g id="patch_22">
    <path d="M 307.298304 307.584 
L 320.44032 307.584 
L 320.44032 298.536192 
L 307.298304 298.536192 
z
" clip-path="url(#p14beb03c06)" style="fill: #2ca02c; fill-opacity: 0.5; stroke: #000000; stroke-linejoin: miter"/>
   </g>
   <g id="patch_23">
    <path d="M 320.44032 307.584 
L 333.582336 307.584 
L 333.582336 304.390656 
L 320.44032 304.390656 
z
" clip-path="url(#p14beb03c06)" style="fill: #2ca02c; fill-opacity: 0.5; stroke: #000000; stroke-linejoin: miter"/>
   </g>
   <g id="patch_24">
    <path d="M 333.582336 307.584 
L 346.724352 307.584 
L 346.724352 302.26176 
L 333.582336 302.26176 
z
" clip-path="url(#p14beb03c06)" style="fill: #2ca02c; fill-opacity: 0.5; stroke: #000000; stroke-linejoin: miter"/>
   </g>
   <g id="patch_25">
    <path d="M 346.724352 307.584 
L 359.866368 307.584 
L 359.866368 306.519552 
L 346.724352 306.519552 
z
" clip-path="url(#p14beb03c06)" style="fill: #2ca02c; fill-opacity: 0.5; stroke: #000000; stroke-linejoin: miter"/>
   </g>
   <g id="patch_26">
    <path d="M 359.866368 307.584 
L 373.008384 307.584 
L 373.008384 307.584 
L 359.866368 307.584 
z
" clip-path="url(#p14beb03c06)" style="fill: #2ca02c; fill-opacity: 0.5; stroke: #000000; stroke-linejoin: miter"/>
   </g>
   <g id="patch_27">
    <path d="M 373.008384 307.584 
L 386.1504 307.584 
L 386.1504 307.584 
L 373.008384 307.584 
z
" clip-path="url(#p14beb03c06)" style="fill: #2ca02c; fill-opacity: 0.5; stroke: #000000; stroke-linejoin: miter"/>
   </g>
   <g id="patch_28">
    <path d="M 57.6 307.584 
L 70.742016 307.584 
L 70.742016 307.584 
L 57.6 307.584 
z
" clip-path="url(#p14beb03c06)" style="fill: #ff7f0e; fill-opacity: 0.5; stroke: #000000; stroke-linejoin: miter"/>
   </g>
   <g id="patch_29">
    <path d="M 70.742016 307.584 
L 83.884032 307.584 
L 83.884032 307.051776 
L 70.742016 307.051776 
z
" clip-path="url(#p14beb03c06)" style="fill: #ff7f0e; fill-opacity: 0.5; stroke: #000000; stroke-linejoin: miter"/>
   </g>
   <g id="patch_30">
    <path d="M 83.884032 307.584 
L 97.026048 307.584 
L 97.026048 305.987328 
L 83.884032 305.987328 
z
" clip-path="url(#p14beb03c06)" style="fill: #ff7f0e; fill-opacity: 0.5; stroke: #000000; stroke-linejoin: miter"/>
   </g>
   <g id="patch_31">
    <path d="M 97.026048 307.584 
L 110.168064 307.584 
L 110.168064 304.390656 
L 97.026048 304.390656 
z
" clip-path="url(#p14beb03c06)" style="fill: #ff7f0e; fill-opacity: 0.5; stroke: #000000; stroke-linejoin: miter"/>
   </g>
   <g id="patch_32">
    <path d="M 110.168064 307.584 
L 123.31008 307.584 
L 123.31008 302.793984 
L 110.168064 302.793984 
z
" clip-path="url(#p14beb03c06)" style="fill: #ff7f0e; fill-opacity: 0.5; stroke: #000000; stroke-linejoin: miter"/>
   </g>
   <g id="patch_33">
    <path d="M 123.31008 307.584 
L 136.452096 307.584 
L 136.452096 298.536192 
L 123.31008 298.536192 
z
" clip-path="url(#p14beb03c06)" style="fill: #ff7f0e; fill-opacity: 0.5; stroke: #000000; stroke-linejoin: miter"/>
   </g>
   <g id="patch_34">
    <path d="M 136.452096 307.584 
L 149.594112 307.584 
L 149.594112 301.729536 
L 136.452096 301.729536 
z
" clip-path="url(#p14beb03c06)" style="fill: #ff7f0e; fill-opacity: 0.5; stroke: #000000; stroke-linejoin: miter"/>
   </g>
   <g id="patch_35">
    <path d="M 149.594112 307.584 
L 162.736128 307.584 
L 162.736128 298.003968 
L 149.594112 298.003968 
z
" clip-path="url(#p14beb03c06)" style="fill: #ff7f0e; fill-opacity: 0.5; stroke: #000000; stroke-linejoin: miter"/>
   </g>
   <g id="patch_36">
    <path d="M 162.736128 307.584 
L 175.878144 307.584 
L 175.878144 299.60064 
L 162.736128 299.60064 
z
" clip-path="url(#p14beb03c06)" style="fill: #ff7f0e; fill-opacity: 0.5; stroke: #000000; stroke-linejoin: miter"/>
   </g>
   <g id="patch_37">
    <path d="M 175.878144 307.584 
L 189.02016 307.584 
L 189.02016 303.326208 
L 175.878144 303.326208 
z
" clip-path="url(#p14beb03c06)" style="fill: #ff7f0e; fill-opacity: 0.5; stroke: #000000; stroke-linejoin: miter"/>
   </g>
   <g id="patch_38">
    <path d="M 189.02016 307.584 
L 202.162176 307.584 
L 202.162176 305.455104 
L 189.02016 305.455104 
z
" clip-path="url(#p14beb03c06)" style="fill: #ff7f0e; fill-opacity: 0.5; stroke: #000000; stroke-linejoin: miter"/>
   </g>
   <g id="patch_39">
    <path d="M 202.162176 307.584 
L 215.304192 307.584 
L 215.304192 302.26176 
L 202.162176 302.26176 
z
" clip-path="url(#p14beb03c06)" style="fill: #ff7f0e; fill-opacity: 0.5; stroke: #000000; stroke-linejoin: miter"/>
   </g>
   <g id="patch_40">
    <path d="M 215.304192 307.584 
L 228.446208 307.584 
L 228.446208 297.471744 
L 215.304192 297.471744 
z
" clip-path="url(#p14beb03c06)" style="fill: #ff7f0e; fill-opacity: 0.5; stroke: #000000; stroke-linejoin: miter"/>
   </g>
   <g id="patch_41">
    <path d="M 228.446208 307.584 
L 241.588224 307.584 
L 241.588224 291.61728 
L 228.446208 291.61728 
z
" clip-path="url(#p14beb03c06)" style="fill: #ff7f0e; fill-opacity: 0.5; stroke: #000000; stroke-linejoin: miter"/>
   </g>
   <g id="patch_42">
    <path d="M 241.588224 307.584 
L 254.73024 307.584 
L 254.73024 292.149504 
L 241.588224 292.149504 
z
" clip-path="url(#p14beb03c06)" style="fill: #ff7f0e; fill-opacity: 0.5; stroke: #000000; stroke-linejoin: miter"/>
   </g>
   <g id="patch_43">
    <path d="M 254.73024 307.584 
L 267.872256 307.584 
L 267.872256 296.93952 
L 254.73024 296.93952 
z
" clip-path="url(#p14beb03c06)" style="fill: #ff7f0e; fill-opacity: 0.5; stroke: #000000; stroke-linejoin: miter"/>
   </g>
   <g id="patch_44">
    <path d="M 267.872256 307.584 
L 281.014272 307.584 
L 281.014272 283.101696 
L 267.872256 283.101696 
z
" clip-path="url(#p14beb03c06)" style="fill: #ff7f0e; fill-opacity: 0.5; stroke: #000000; stroke-linejoin: miter"/>
   </g>
   <g id="patch_45">
    <path d="M 281.014272 307.584 
L 294.156288 307.584 
L 294.156288 288.95616 
L 281.014272 288.95616 
z
" clip-path="url(#p14beb03c06)" style="fill: #ff7f0e; fill-opacity: 0.5; stroke: #000000; stroke-linejoin: miter"/>
   </g>
   <g id="patch_46">
    <path d="M 294.156288 307.584 
L 307.298304 307.584 
L 307.298304 287.359488 
L 294.156288 287.359488 
z
" clip-path="url(#p14beb03c06)" style="fill: #ff7f0e; fill-opacity: 0.5; stroke: #000000; stroke-linejoin: miter"/>
   </g>
   <g id="patch_47">
    <path d="M 307.298304 307.584 
L 320.44032 307.584 
L 320.44032 293.746176 
L 307.298304 293.746176 
z
" clip-path="url(#p14beb03c06)" style="fill: #ff7f0e; fill-opacity: 0.5; stroke: #000000; stroke-linejoin: miter"/>
   </g>
   <g id="patch_48">
    <path d="M 320.44032 307.584 
L 333.582336 307.584 
L 333.582336 290.020608 
L 320.44032 290.020608 
z
" clip-path="url(#p14beb03c06)" style="fill: #ff7f0e; fill-opacity: 0.5; stroke: #000000; stroke-linejoin: miter"/>
   </g>
   <g id="patch_49">
    <path d="M 333.582336 307.584 
L 346.724352 307.584 
L 346.724352 298.536192 
L 333.582336 298.536192 
z
" clip-path="url(#p14beb03c06)" style="fill: #ff7f0e; fill-opacity: 0.5; stroke: #000000; stroke-linejoin: miter"/>
   </g>
   <g id="patch_50">
    <path d="M 346.724352 307.584 
L 359.866368 307.584 
L 359.866368 298.536192 
L 346.724352 298.536192 
z
" clip-path="url(#p14beb03c06)" style="fill: #ff7f0e; fill-opacity: 0.5; stroke: #000000; stroke-linejoin: miter"/>
   </g>
   <g id="patch_51">
    <path d="M 359.866368 307.584 
L 373.008384 307.584 
L 373.008384 304.92288 
L 359.866368 304.92288 
z
" clip-path="url(#p14beb03c06)" style="fill: #ff7f0e; fill-opacity: 0.5; stroke: #000000; stroke-linejoin: miter"/>
   </g>
   <g id="patch_52">
    <path d="M 373.008384 307.584 
L 386.1504 307.584 
L 386.1504 306.519552 
L 373.008384 306.519552 
z
" clip-path="url(#p14beb03c06)" style="fill: #ff7f0e; fill-opacity: 0.5; stroke: #000000; stroke-linejoin: miter"/>
   </g>
   <g id="patch_53">
    <path d="M 57.6 307.584 
L 70.742016 307.584 
L 70.742016 -215.592192 
L 57.6 -215.592192 
z
" clip-path="url(#p14beb03c06)" style="fill: #1f77b4; fill-opacity: 0.5; stroke: #000000; stroke-linejoin: miter"/>
   </g>
   <g id="patch_54">
    <path d="M 70.742016 307.584 
L 83.884032 307.584 
L 83.884032 303.326208 
L 70.742016 303.326208 
z
" clip-path="url(#p14beb03c06)" style="fill: #1f77b4; fill-opacity: 0.5; stroke: #000000; stroke-linejoin: miter"/>
   </g>
   <g id="patch_55">
    <path d="M 83.884032 307.584 
L 97.026048 307.584 
L 97.026048 304.92288 
L 83.884032 304.92288 
z
" clip-path="url(#p14beb03c06)" style="fill: #1f77b4; fill-opacity: 0.5; stroke: #000000; stroke-linejoin: miter"/>
   </g>
   <g id="patch_56">
    <path d="M 97.026048 307.584 
L 110.168064 307.584 
L 110.168064 305.987328 
L 97.026048 305.987328 
z
" clip-path="url(#p14beb03c06)" style="fill: #1f77b4; fill-opacity: 0.5; stroke: #000000; stroke-linejoin: miter"/>
   </g>
   <g id="patch_57">
    <path d="M 110.168064 307.584 
L 123.31008 307.584 
L 123.31008 305.455104 
L 110.168064 305.455104 
z
" clip-path="url(#p14beb03c06)" style="fill: #1f77b4; fill-opacity: 0.5; stroke: #000000; stroke-linejoin: miter"/>
   </g>
   <g id="patch_58">
    <path d="M 123.31008 307.584 
L 136.452096 307.584 
L 136.452096 304.92288 
L 123.31008 304.92288 
z
" clip-path="url(#p14beb03c06)" style="fill: #1f77b4; fill-opacity: 0.5; stroke: #000000; stroke-linejoin: miter"/>
   </g>
   <g id="patch_59">
    <path d="M 136.452096 307.584 
L 149.594112 307.584 
L 149.594112 306.519552 
L 136.452096 306.519552 
z
" clip-path="url(#p14beb03c06)" style="fill: #1f77b4; fill-opacity: 0.5; stroke: #000000; stroke-linejoin: miter"/>
   </g>
   <g id="patch_60">
    <path d="M 149.594112 307.584 
L 162.736128 307.584 
L 162.736128 306.519552 
L 149.594112 306.519552 
z
" clip-path="url(#p14beb03c06)" style="fill: #1f77b4; fill-opacity: 0.5; stroke: #000000; stroke-linejoin: miter"/>
   </g>
   <g id="patch_61">
    <path d="M 162.736128 307.584 
L 175.878144 307.584 
L 175.878144 305.987328 
L 162.736128 305.987328 
z
" clip-path="url(#p14beb03c06)" style="fill: #1f77b4; fill-opacity: 0.5; stroke: #000000; stroke-linejoin: miter"/>
   </g>
   <g id="patch_62">
    <path d="M 175.878144 307.584 
L 189.02016 307.584 
L 189.02016 306.519552 
L 175.878144 306.519552 
z
" clip-path="url(#p14beb03c06)" style="fill: #1f77b4; fill-opacity: 0.5; stroke: #000000; stroke-linejoin: miter"/>
   </g>
   <g id="patch_63">
    <path d="M 189.02016 307.584 
L 202.162176 307.584 
L 202.162176 307.584 
L 189.02016 307.584 
z
" clip-path="url(#p14beb03c06)" style="fill: #1f77b4; fill-opacity: 0.5; stroke: #000000; stroke-linejoin: miter"/>
   </g>
   <g id="patch_64">
    <path d="M 202.162176 307.584 
L 215.304192 307.584 
L 215.304192 307.584 
L 202.162176 307.584 
z
" clip-path="url(#p14beb03c06)" style="fill: #1f77b4; fill-opacity: 0.5; stroke: #000000; stroke-linejoin: miter"/>
   </g>
   <g id="patch_65">
    <path d="M 215.304192 307.584 
L 228.446208 307.584 
L 228.446208 307.584 
L 215.304192 307.584 
z
" clip-path="url(#p14beb03c06)" style="fill: #1f77b4; fill-opacity: 0.5; stroke: #000000; stroke-linejoin: miter"/>
   </g>
   <g id="patch_66">
    <path d="M 228.446208 307.584 
L 241.588224 307.584 
L 241.588224 307.584 
L 228.446208 307.584 
z
" clip-path="url(#p14beb03c06)" style="fill: #1f77b4; fill-opacity: 0.5; stroke: #000000; stroke-linejoin: miter"/>
   </g>
   <g id="patch_67">
    <path d="M 241.588224 307.584 
L 254.73024 307.584 
L 254.73024 307.584 
L 241.588224 307.584 
z
" clip-path="url(#p14beb03c06)" style="fill: #1f77b4; fill-opacity: 0.5; stroke: #000000; stroke-linejoin: miter"/>
   </g>
   <g id="patch_68">
    <path d="M 254.73024 307.584 
L 267.872256 307.584 
L 267.872256 307.584 
L 254.73024 307.584 
z
" clip-path="url(#p14beb03c06)" style="fill: #1f77b4; fill-opacity: 0.5; stroke: #000000; stroke-linejoin: miter"/>
   </g>
   <g id="patch_69">
    <path d="M 267.872256 307.584 
L 281.014272 307.584 
L 281.014272 307.584 
L 267.872256 307.584 
z
" clip-path="url(#p14beb03c06)" style="fill: #1f77b4; fill-opacity: 0.5; stroke: #000000; stroke-linejoin: miter"/>
   </g>
   <g id="patch_70">
    <path d="M 281.014272 307.584 
L 294.156288 307.584 
L 294.156288 307.584 
L 281.014272 307.584 
z
" clip-path="url(#p14beb03c06)" style="fill: #1f77b4; fill-opacity: 0.5; stroke: #000000; stroke-linejoin: miter"/>
   </g>
   <g id="patch_71">
    <path d="M 294.156288 307.584 
L 307.298304 307.584 
L 307.298304 307.584 
L 294.156288 307.584 
z
" clip-path="url(#p14beb03c06)" style="fill: #1f77b4; fill-opacity: 0.5; stroke: #000000; stroke-linejoin: miter"/>
   </g>
   <g id="patch_72">
    <path d="M 307.298304 307.584 
L 320.44032 307.584 
L 320.44032 307.584 
L 307.298304 307.584 
z
" clip-path="url(#p14beb03c06)" style="fill: #1f77b4; fill-opacity: 0.5; stroke: #000000; stroke-linejoin: miter"/>
   </g>
   <g id="patch_73">
    <path d="M 320.44032 307.584 
L 333.582336 307.584 
L 333.582336 307.584 
L 320.44032 307.584 
z
" clip-path="url(#p14beb03c06)" style="fill: #1f77b4; fill-opacity: 0.5; stroke: #000000; stroke-linejoin: miter"/>
   </g>
   <g id="patch_74">
    <path d="M 333.582336 307.584 
L 346.724352 307.584 
L 346.724352 307.584 
L 333.582336 307.584 
z
" clip-path="url(#p14beb03c06)" style="fill: #1f77b4; fill-opacity: 0.5; stroke: #000000; stroke-linejoin: miter"/>
   </g>
   <g id="patch_75">
    <path d="M 346.724352 307.584 
L 359.866368 307.584 
L 359.866368 307.584 
L 346.724352 307.584 
z
" clip-path="url(#p14beb03c06)" style="fill: #1f77b4; fill-opacity: 0.5; stroke: #000000; stroke-linejoin: miter"/>
   </g>
   <g id="patch_76">
    <path d="M 359.866368 307.584 
L 373.008384 307.584 
L 373.008384 307.584 
L 359.866368 307.584 
z
" clip-path="url(#p14beb03c06)" style="fill: #1f77b4; fill-opacity: 0.5; stroke: #000000; stroke-linejoin: miter"/>
   </g>
   <g id="patch_77">
    <path d="M 373.008384 307.584 
L 386.1504 307.584 
L 386.1504 307.584 
L 373.008384 307.584 
z
" clip-path="url(#p14beb03c06)" style="fill: #1f77b4; fill-opacity: 0.5; stroke: #000000; stroke-linejoin: miter"/>
   </g>
   <g id="matplotlib.axis_1">
    <g id="xtick_1">
     <g id="line2d_1">
      <defs>
       <path id="m5d6e668703" d="M 0 0 
L 0 3.5 
" style="stroke: #000000; stroke-width: 0.8"/>
      </defs>
      <g>
       <use xlink:href="#m5d6e668703" x="57.6" y="307.584" style="stroke: #000000; stroke-width: 0.8"/>
      </g>
     </g>
     <g id="text_1">
      <!-- 0 -->
      <g transform="translate(54.41875 322.182437) scale(0.1 -0.1)">
       <defs>
        <path id="DejaVuSans-30" d="M 2034 4250 
Q 1547 4250 1301 3770 
Q 1056 3291 1056 2328 
Q 1056 1369 1301 889 
Q 1547 409 2034 409 
Q 2525 409 2770 889 
Q 3016 1369 3016 2328 
Q 3016 3291 2770 3770 
Q 2525 4250 2034 4250 
z
M 2034 4750 
Q 2819 4750 3233 4129 
Q 3647 3509 3647 2328 
Q 3647 1150 3233 529 
Q 2819 -91 2034 -91 
Q 1250 -91 836 529 
Q 422 1150 422 2328 
Q 422 3509 836 4129 
Q 1250 4750 2034 4750 
z
" transform="scale(0.015625)"/>
       </defs>
       <use xlink:href="#DejaVuSans-30"/>
      </g>
     </g>
    </g>
    <g id="xtick_2">
     <g id="line2d_2">
      <g>
       <use xlink:href="#m5d6e668703" x="129.024" y="307.584" style="stroke: #000000; stroke-width: 0.8"/>
      </g>
     </g>
     <g id="text_2">
      <!-- 20 -->
      <g transform="translate(122.6615 322.182437) scale(0.1 -0.1)">
       <defs>
        <path id="DejaVuSans-32" d="M 1228 531 
L 3431 531 
L 3431 0 
L 469 0 
L 469 531 
Q 828 903 1448 1529 
Q 2069 2156 2228 2338 
Q 2531 2678 2651 2914 
Q 2772 3150 2772 3378 
Q 2772 3750 2511 3984 
Q 2250 4219 1831 4219 
Q 1534 4219 1204 4116 
Q 875 4013 500 3803 
L 500 4441 
Q 881 4594 1212 4672 
Q 1544 4750 1819 4750 
Q 2544 4750 2975 4387 
Q 3406 4025 3406 3419 
Q 3406 3131 3298 2873 
Q 3191 2616 2906 2266 
Q 2828 2175 2409 1742 
Q 1991 1309 1228 531 
z
" transform="scale(0.015625)"/>
       </defs>
       <use xlink:href="#DejaVuSans-32"/>
       <use xlink:href="#DejaVuSans-30" x="63.623047"/>
      </g>
     </g>
    </g>
    <g id="xtick_3">
     <g id="line2d_3">
      <g>
       <use xlink:href="#m5d6e668703" x="200.448" y="307.584" style="stroke: #000000; stroke-width: 0.8"/>
      </g>
     </g>
     <g id="text_3">
      <!-- 40 -->
      <g transform="translate(194.0855 322.182437) scale(0.1 -0.1)">
       <defs>
        <path id="DejaVuSans-34" d="M 2419 4116 
L 825 1625 
L 2419 1625 
L 2419 4116 
z
M 2253 4666 
L 3047 4666 
L 3047 1625 
L 3713 1625 
L 3713 1100 
L 3047 1100 
L 3047 0 
L 2419 0 
L 2419 1100 
L 313 1100 
L 313 1709 
L 2253 4666 
z
" transform="scale(0.015625)"/>
       </defs>
       <use xlink:href="#DejaVuSans-34"/>
       <use xlink:href="#DejaVuSans-30" x="63.623047"/>
      </g>
     </g>
    </g>
    <g id="xtick_4">
     <g id="line2d_4">
      <g>
       <use xlink:href="#m5d6e668703" x="271.872" y="307.584" style="stroke: #000000; stroke-width: 0.8"/>
      </g>
     </g>
     <g id="text_4">
      <!-- 60 -->
      <g transform="translate(265.5095 322.182437) scale(0.1 -0.1)">
       <defs>
        <path id="DejaVuSans-36" d="M 2113 2584 
Q 1688 2584 1439 2293 
Q 1191 2003 1191 1497 
Q 1191 994 1439 701 
Q 1688 409 2113 409 
Q 2538 409 2786 701 
Q 3034 994 3034 1497 
Q 3034 2003 2786 2293 
Q 2538 2584 2113 2584 
z
M 3366 4563 
L 3366 3988 
Q 3128 4100 2886 4159 
Q 2644 4219 2406 4219 
Q 1781 4219 1451 3797 
Q 1122 3375 1075 2522 
Q 1259 2794 1537 2939 
Q 1816 3084 2150 3084 
Q 2853 3084 3261 2657 
Q 3669 2231 3669 1497 
Q 3669 778 3244 343 
Q 2819 -91 2113 -91 
Q 1303 -91 875 529 
Q 447 1150 447 2328 
Q 447 3434 972 4092 
Q 1497 4750 2381 4750 
Q 2619 4750 2861 4703 
Q 3103 4656 3366 4563 
z
" transform="scale(0.015625)"/>
       </defs>
       <use xlink:href="#DejaVuSans-36"/>
       <use xlink:href="#DejaVuSans-30" x="63.623047"/>
      </g>
     </g>
    </g>
    <g id="xtick_5">
     <g id="line2d_5">
      <g>
       <use xlink:href="#m5d6e668703" x="343.296" y="307.584" style="stroke: #000000; stroke-width: 0.8"/>
      </g>
     </g>
     <g id="text_5">
      <!-- 80 -->
      <g transform="translate(336.9335 322.182437) scale(0.1 -0.1)">
       <defs>
        <path id="DejaVuSans-38" d="M 2034 2216 
Q 1584 2216 1326 1975 
Q 1069 1734 1069 1313 
Q 1069 891 1326 650 
Q 1584 409 2034 409 
Q 2484 409 2743 651 
Q 3003 894 3003 1313 
Q 3003 1734 2745 1975 
Q 2488 2216 2034 2216 
z
M 1403 2484 
Q 997 2584 770 2862 
Q 544 3141 544 3541 
Q 544 4100 942 4425 
Q 1341 4750 2034 4750 
Q 2731 4750 3128 4425 
Q 3525 4100 3525 3541 
Q 3525 3141 3298 2862 
Q 3072 2584 2669 2484 
Q 3125 2378 3379 2068 
Q 3634 1759 3634 1313 
Q 3634 634 3220 271 
Q 2806 -91 2034 -91 
Q 1263 -91 848 271 
Q 434 634 434 1313 
Q 434 1759 690 2068 
Q 947 2378 1403 2484 
z
M 1172 3481 
Q 1172 3119 1398 2916 
Q 1625 2713 2034 2713 
Q 2441 2713 2670 2916 
Q 2900 3119 2900 3481 
Q 2900 3844 2670 4047 
Q 2441 4250 2034 4250 
Q 1625 4250 1398 4047 
Q 1172 3844 1172 3481 
z
" transform="scale(0.015625)"/>
       </defs>
       <use xlink:href="#DejaVuSans-38"/>
       <use xlink:href="#DejaVuSans-30" x="63.623047"/>
      </g>
     </g>
    </g>
    <g id="xtick_6">
     <g id="line2d_6">
      <g>
       <use xlink:href="#m5d6e668703" x="414.72" y="307.584" style="stroke: #000000; stroke-width: 0.8"/>
      </g>
     </g>
     <g id="text_6">
      <!-- 100 -->
      <g transform="translate(405.17625 322.182437) scale(0.1 -0.1)">
       <defs>
        <path id="DejaVuSans-31" d="M 794 531 
L 1825 531 
L 1825 4091 
L 703 3866 
L 703 4441 
L 1819 4666 
L 2450 4666 
L 2450 531 
L 3481 531 
L 3481 0 
L 794 0 
L 794 531 
z
" transform="scale(0.015625)"/>
       </defs>
       <use xlink:href="#DejaVuSans-31"/>
       <use xlink:href="#DejaVuSans-30" x="63.623047"/>
       <use xlink:href="#DejaVuSans-30" x="127.246094"/>
      </g>
     </g>
    </g>
    <g id="text_7">
     <!-- Fractional Snow Cover -->
     <g transform="translate(180.435781 335.860562) scale(0.1 -0.1)">
      <defs>
       <path id="DejaVuSans-46" d="M 628 4666 
L 3309 4666 
L 3309 4134 
L 1259 4134 
L 1259 2759 
L 3109 2759 
L 3109 2228 
L 1259 2228 
L 1259 0 
L 628 0 
L 628 4666 
z
" transform="scale(0.015625)"/>
       <path id="DejaVuSans-72" d="M 2631 2963 
Q 2534 3019 2420 3045 
Q 2306 3072 2169 3072 
Q 1681 3072 1420 2755 
Q 1159 2438 1159 1844 
L 1159 0 
L 581 0 
L 581 3500 
L 1159 3500 
L 1159 2956 
Q 1341 3275 1631 3429 
Q 1922 3584 2338 3584 
Q 2397 3584 2469 3576 
Q 2541 3569 2628 3553 
L 2631 2963 
z
" transform="scale(0.015625)"/>
       <path id="DejaVuSans-61" d="M 2194 1759 
Q 1497 1759 1228 1600 
Q 959 1441 959 1056 
Q 959 750 1161 570 
Q 1363 391 1709 391 
Q 2188 391 2477 730 
Q 2766 1069 2766 1631 
L 2766 1759 
L 2194 1759 
z
M 3341 1997 
L 3341 0 
L 2766 0 
L 2766 531 
Q 2569 213 2275 61 
Q 1981 -91 1556 -91 
Q 1019 -91 701 211 
Q 384 513 384 1019 
Q 384 1609 779 1909 
Q 1175 2209 1959 2209 
L 2766 2209 
L 2766 2266 
Q 2766 2663 2505 2880 
Q 2244 3097 1772 3097 
Q 1472 3097 1187 3025 
Q 903 2953 641 2809 
L 641 3341 
Q 956 3463 1253 3523 
Q 1550 3584 1831 3584 
Q 2591 3584 2966 3190 
Q 3341 2797 3341 1997 
z
" transform="scale(0.015625)"/>
       <path id="DejaVuSans-63" d="M 3122 3366 
L 3122 2828 
Q 2878 2963 2633 3030 
Q 2388 3097 2138 3097 
Q 1578 3097 1268 2742 
Q 959 2388 959 1747 
Q 959 1106 1268 751 
Q 1578 397 2138 397 
Q 2388 397 2633 464 
Q 2878 531 3122 666 
L 3122 134 
Q 2881 22 2623 -34 
Q 2366 -91 2075 -91 
Q 1284 -91 818 406 
Q 353 903 353 1747 
Q 353 2603 823 3093 
Q 1294 3584 2113 3584 
Q 2378 3584 2631 3529 
Q 2884 3475 3122 3366 
z
" transform="scale(0.015625)"/>
       <path id="DejaVuSans-74" d="M 1172 4494 
L 1172 3500 
L 2356 3500 
L 2356 3053 
L 1172 3053 
L 1172 1153 
Q 1172 725 1289 603 
Q 1406 481 1766 481 
L 2356 481 
L 2356 0 
L 1766 0 
Q 1100 0 847 248 
Q 594 497 594 1153 
L 594 3053 
L 172 3053 
L 172 3500 
L 594 3500 
L 594 4494 
L 1172 4494 
z
" transform="scale(0.015625)"/>
       <path id="DejaVuSans-69" d="M 603 3500 
L 1178 3500 
L 1178 0 
L 603 0 
L 603 3500 
z
M 603 4863 
L 1178 4863 
L 1178 4134 
L 603 4134 
L 603 4863 
z
" transform="scale(0.015625)"/>
       <path id="DejaVuSans-6f" d="M 1959 3097 
Q 1497 3097 1228 2736 
Q 959 2375 959 1747 
Q 959 1119 1226 758 
Q 1494 397 1959 397 
Q 2419 397 2687 759 
Q 2956 1122 2956 1747 
Q 2956 2369 2687 2733 
Q 2419 3097 1959 3097 
z
M 1959 3584 
Q 2709 3584 3137 3096 
Q 3566 2609 3566 1747 
Q 3566 888 3137 398 
Q 2709 -91 1959 -91 
Q 1206 -91 779 398 
Q 353 888 353 1747 
Q 353 2609 779 3096 
Q 1206 3584 1959 3584 
z
" transform="scale(0.015625)"/>
       <path id="DejaVuSans-6e" d="M 3513 2113 
L 3513 0 
L 2938 0 
L 2938 2094 
Q 2938 2591 2744 2837 
Q 2550 3084 2163 3084 
Q 1697 3084 1428 2787 
Q 1159 2491 1159 1978 
L 1159 0 
L 581 0 
L 581 3500 
L 1159 3500 
L 1159 2956 
Q 1366 3272 1645 3428 
Q 1925 3584 2291 3584 
Q 2894 3584 3203 3211 
Q 3513 2838 3513 2113 
z
" transform="scale(0.015625)"/>
       <path id="DejaVuSans-6c" d="M 603 4863 
L 1178 4863 
L 1178 0 
L 603 0 
L 603 4863 
z
" transform="scale(0.015625)"/>
       <path id="DejaVuSans-20" transform="scale(0.015625)"/>
       <path id="DejaVuSans-53" d="M 3425 4513 
L 3425 3897 
Q 3066 4069 2747 4153 
Q 2428 4238 2131 4238 
Q 1616 4238 1336 4038 
Q 1056 3838 1056 3469 
Q 1056 3159 1242 3001 
Q 1428 2844 1947 2747 
L 2328 2669 
Q 3034 2534 3370 2195 
Q 3706 1856 3706 1288 
Q 3706 609 3251 259 
Q 2797 -91 1919 -91 
Q 1588 -91 1214 -16 
Q 841 59 441 206 
L 441 856 
Q 825 641 1194 531 
Q 1563 422 1919 422 
Q 2459 422 2753 634 
Q 3047 847 3047 1241 
Q 3047 1584 2836 1778 
Q 2625 1972 2144 2069 
L 1759 2144 
Q 1053 2284 737 2584 
Q 422 2884 422 3419 
Q 422 4038 858 4394 
Q 1294 4750 2059 4750 
Q 2388 4750 2728 4690 
Q 3069 4631 3425 4513 
z
" transform="scale(0.015625)"/>
       <path id="DejaVuSans-77" d="M 269 3500 
L 844 3500 
L 1563 769 
L 2278 3500 
L 2956 3500 
L 3675 769 
L 4391 3500 
L 4966 3500 
L 4050 0 
L 3372 0 
L 2619 2869 
L 1863 0 
L 1184 0 
L 269 3500 
z
" transform="scale(0.015625)"/>
       <path id="DejaVuSans-43" d="M 4122 4306 
L 4122 3641 
Q 3803 3938 3442 4084 
Q 3081 4231 2675 4231 
Q 1875 4231 1450 3742 
Q 1025 3253 1025 2328 
Q 1025 1406 1450 917 
Q 1875 428 2675 428 
Q 3081 428 3442 575 
Q 3803 722 4122 1019 
L 4122 359 
Q 3791 134 3420 21 
Q 3050 -91 2638 -91 
Q 1578 -91 968 557 
Q 359 1206 359 2328 
Q 359 3453 968 4101 
Q 1578 4750 2638 4750 
Q 3056 4750 3426 4639 
Q 3797 4528 4122 4306 
z
" transform="scale(0.015625)"/>
       <path id="DejaVuSans-76" d="M 191 3500 
L 800 3500 
L 1894 563 
L 2988 3500 
L 3597 3500 
L 2284 0 
L 1503 0 
L 191 3500 
z
" transform="scale(0.015625)"/>
       <path id="DejaVuSans-65" d="M 3597 1894 
L 3597 1613 
L 953 1613 
Q 991 1019 1311 708 
Q 1631 397 2203 397 
Q 2534 397 2845 478 
Q 3156 559 3463 722 
L 3463 178 
Q 3153 47 2828 -22 
Q 2503 -91 2169 -91 
Q 1331 -91 842 396 
Q 353 884 353 1716 
Q 353 2575 817 3079 
Q 1281 3584 2069 3584 
Q 2775 3584 3186 3129 
Q 3597 2675 3597 1894 
z
M 3022 2063 
Q 3016 2534 2758 2815 
Q 2500 3097 2075 3097 
Q 1594 3097 1305 2825 
Q 1016 2553 972 2059 
L 3022 2063 
z
" transform="scale(0.015625)"/>
      </defs>
      <use xlink:href="#DejaVuSans-46"/>
      <use xlink:href="#DejaVuSans-72" x="50.269531"/>
      <use xlink:href="#DejaVuSans-61" x="91.382812"/>
      <use xlink:href="#DejaVuSans-63" x="152.662109"/>
      <use xlink:href="#DejaVuSans-74" x="207.642578"/>
      <use xlink:href="#DejaVuSans-69" x="246.851562"/>
      <use xlink:href="#DejaVuSans-6f" x="274.634766"/>
      <use xlink:href="#DejaVuSans-6e" x="335.816406"/>
      <use xlink:href="#DejaVuSans-61" x="399.195312"/>
      <use xlink:href="#DejaVuSans-6c" x="460.474609"/>
      <use xlink:href="#DejaVuSans-20" x="488.257812"/>
      <use xlink:href="#DejaVuSans-53" x="520.044922"/>
      <use xlink:href="#DejaVuSans-6e" x="583.521484"/>
      <use xlink:href="#DejaVuSans-6f" x="646.900391"/>
      <use xlink:href="#DejaVuSans-77" x="708.082031"/>
      <use xlink:href="#DejaVuSans-20" x="789.869141"/>
      <use xlink:href="#DejaVuSans-43" x="821.65625"/>
      <use xlink:href="#DejaVuSans-6f" x="891.480469"/>
      <use xlink:href="#DejaVuSans-76" x="952.662109"/>
      <use xlink:href="#DejaVuSans-65" x="1011.841797"/>
      <use xlink:href="#DejaVuSans-72" x="1073.365234"/>
     </g>
    </g>
   </g>
   <g id="matplotlib.axis_2">
    <g id="ytick_1">
     <g id="line2d_7">
      <defs>
       <path id="m7de17f2059" d="M 0 0 
L -3.5 0 
" style="stroke: #000000; stroke-width: 0.8"/>
      </defs>
      <g>
       <use xlink:href="#m7de17f2059" x="57.6" y="307.584" style="stroke: #000000; stroke-width: 0.8"/>
      </g>
     </g>
     <g id="text_8">
      <!-- 0 -->
      <g transform="translate(44.2375 311.383219) scale(0.1 -0.1)">
       <use xlink:href="#DejaVuSans-30"/>
      </g>
     </g>
    </g>
    <g id="ytick_2">
     <g id="line2d_8">
      <g>
       <use xlink:href="#m7de17f2059" x="57.6" y="254.3616" style="stroke: #000000; stroke-width: 0.8"/>
      </g>
     </g>
     <g id="text_9">
      <!-- 100 -->
      <g transform="translate(31.5125 258.160819) scale(0.1 -0.1)">
       <use xlink:href="#DejaVuSans-31"/>
       <use xlink:href="#DejaVuSans-30" x="63.623047"/>
       <use xlink:href="#DejaVuSans-30" x="127.246094"/>
      </g>
     </g>
    </g>
    <g id="ytick_3">
     <g id="line2d_9">
      <g>
       <use xlink:href="#m7de17f2059" x="57.6" y="201.1392" style="stroke: #000000; stroke-width: 0.8"/>
      </g>
     </g>
     <g id="text_10">
      <!-- 200 -->
      <g transform="translate(31.5125 204.938419) scale(0.1 -0.1)">
       <use xlink:href="#DejaVuSans-32"/>
       <use xlink:href="#DejaVuSans-30" x="63.623047"/>
       <use xlink:href="#DejaVuSans-30" x="127.246094"/>
      </g>
     </g>
    </g>
    <g id="ytick_4">
     <g id="line2d_10">
      <g>
       <use xlink:href="#m7de17f2059" x="57.6" y="147.9168" style="stroke: #000000; stroke-width: 0.8"/>
      </g>
     </g>
     <g id="text_11">
      <!-- 300 -->
      <g transform="translate(31.5125 151.716019) scale(0.1 -0.1)">
       <defs>
        <path id="DejaVuSans-33" d="M 2597 2516 
Q 3050 2419 3304 2112 
Q 3559 1806 3559 1356 
Q 3559 666 3084 287 
Q 2609 -91 1734 -91 
Q 1441 -91 1130 -33 
Q 819 25 488 141 
L 488 750 
Q 750 597 1062 519 
Q 1375 441 1716 441 
Q 2309 441 2620 675 
Q 2931 909 2931 1356 
Q 2931 1769 2642 2001 
Q 2353 2234 1838 2234 
L 1294 2234 
L 1294 2753 
L 1863 2753 
Q 2328 2753 2575 2939 
Q 2822 3125 2822 3475 
Q 2822 3834 2567 4026 
Q 2313 4219 1838 4219 
Q 1578 4219 1281 4162 
Q 984 4106 628 3988 
L 628 4550 
Q 988 4650 1302 4700 
Q 1616 4750 1894 4750 
Q 2613 4750 3031 4423 
Q 3450 4097 3450 3541 
Q 3450 3153 3228 2886 
Q 3006 2619 2597 2516 
z
" transform="scale(0.015625)"/>
       </defs>
       <use xlink:href="#DejaVuSans-33"/>
       <use xlink:href="#DejaVuSans-30" x="63.623047"/>
       <use xlink:href="#DejaVuSans-30" x="127.246094"/>
      </g>
     </g>
    </g>
    <g id="ytick_5">
     <g id="line2d_11">
      <g>
       <use xlink:href="#m7de17f2059" x="57.6" y="94.6944" style="stroke: #000000; stroke-width: 0.8"/>
      </g>
     </g>
     <g id="text_12">
      <!-- 400 -->
      <g transform="translate(31.5125 98.493619) scale(0.1 -0.1)">
       <use xlink:href="#DejaVuSans-34"/>
       <use xlink:href="#DejaVuSans-30" x="63.623047"/>
       <use xlink:href="#DejaVuSans-30" x="127.246094"/>
      </g>
     </g>
    </g>
    <g id="ytick_6">
     <g id="line2d_12">
      <g>
       <use xlink:href="#m7de17f2059" x="57.6" y="41.472" style="stroke: #000000; stroke-width: 0.8"/>
      </g>
     </g>
     <g id="text_13">
      <!-- 500 -->
      <g transform="translate(31.5125 45.271219) scale(0.1 -0.1)">
       <defs>
        <path id="DejaVuSans-35" d="M 691 4666 
L 3169 4666 
L 3169 4134 
L 1269 4134 
L 1269 2991 
Q 1406 3038 1543 3061 
Q 1681 3084 1819 3084 
Q 2600 3084 3056 2656 
Q 3513 2228 3513 1497 
Q 3513 744 3044 326 
Q 2575 -91 1722 -91 
Q 1428 -91 1123 -41 
Q 819 9 494 109 
L 494 744 
Q 775 591 1075 516 
Q 1375 441 1709 441 
Q 2250 441 2565 725 
Q 2881 1009 2881 1497 
Q 2881 1984 2565 2268 
Q 2250 2553 1709 2553 
Q 1456 2553 1204 2497 
Q 953 2441 691 2322 
L 691 4666 
z
" transform="scale(0.015625)"/>
       </defs>
       <use xlink:href="#DejaVuSans-35"/>
       <use xlink:href="#DejaVuSans-30" x="63.623047"/>
       <use xlink:href="#DejaVuSans-30" x="127.246094"/>
      </g>
     </g>
    </g>
    <g id="text_14">
     <!-- Count -->
     <g transform="translate(25.432812 189.376437) rotate(-90) scale(0.1 -0.1)">
      <defs>
       <path id="DejaVuSans-75" d="M 544 1381 
L 544 3500 
L 1119 3500 
L 1119 1403 
Q 1119 906 1312 657 
Q 1506 409 1894 409 
Q 2359 409 2629 706 
Q 2900 1003 2900 1516 
L 2900 3500 
L 3475 3500 
L 3475 0 
L 2900 0 
L 2900 538 
Q 2691 219 2414 64 
Q 2138 -91 1772 -91 
Q 1169 -91 856 284 
Q 544 659 544 1381 
z
M 1991 3584 
L 1991 3584 
z
" transform="scale(0.015625)"/>
      </defs>
      <use xlink:href="#DejaVuSans-43"/>
      <use xlink:href="#DejaVuSans-6f" x="69.824219"/>
      <use xlink:href="#DejaVuSans-75" x="131.005859"/>
      <use xlink:href="#DejaVuSans-6e" x="194.384766"/>
      <use xlink:href="#DejaVuSans-74" x="257.763672"/>
     </g>
    </g>
   </g>
   <g id="line2d_13">
    <path d="M 57.6 307.583991 
L 100.526183 307.479141 
L 110.432225 307.214733 
L 118.68726 306.73933 
L 125.291288 306.150609 
L 133.546324 305.189397 
L 150.056394 302.948147 
L 173.170492 299.791769 
L 179.774521 299.175394 
L 186.378549 298.829289 
L 192.982577 298.743383 
L 214.445668 298.777442 
L 219.398689 298.440085 
L 224.351711 297.891918 
L 229.304732 297.139624 
L 234.257753 296.192797 
L 239.210774 295.051831 
L 244.163795 293.713099 
L 250.767823 291.649897 
L 263.975879 287.332539 
L 267.277893 286.468212 
L 270.579908 285.790453 
L 273.881922 285.344306 
L 277.183936 285.166968 
L 280.48595 285.284955 
L 283.787964 285.711055 
L 287.089978 286.441359 
L 290.391992 287.453185 
L 293.694006 288.704901 
L 298.647027 290.901935 
L 310.204076 296.291163 
L 315.157097 298.238633 
L 318.459112 299.341695 
L 323.412133 300.71186 
L 328.365154 301.803553 
L 334.969182 302.992374 
L 346.526231 304.801938 
L 354.781266 305.929377 
L 361.385294 306.626514 
L 367.989323 307.097759 
L 376.244358 307.412585 
L 386.1504 307.547704 
L 386.1504 307.547704 
" clip-path="url(#p14beb03c06)" style="fill: none; stroke: #2ca02c; stroke-width: 1.5; stroke-linecap: square"/>
   </g>
   <g id="line2d_14">
    <path d="M 57.6 307.275481 
L 69.157049 306.861495 
L 79.063091 306.286181 
L 88.969134 305.486723 
L 100.526183 304.292338 
L 126.942295 301.374281 
L 135.197331 300.786859 
L 141.801359 300.515423 
L 148.405387 300.429273 
L 156.660422 300.567787 
L 166.566464 301.01792 
L 183.076535 301.872195 
L 189.680563 301.955168 
L 194.633584 301.821945 
L 199.586605 301.488589 
L 204.539626 300.94613 
L 209.492647 300.208211 
L 216.096675 298.985038 
L 239.210774 294.387294 
L 247.465809 293.119787 
L 262.324872 291.132323 
L 273.881922 289.711589 
L 280.48595 289.113526 
L 285.438971 288.861295 
L 290.391992 288.820836 
L 295.345013 289.007223 
L 300.298034 289.411056 
L 305.251055 290.003501 
L 311.855083 291.019721 
L 320.110119 292.535066 
L 330.016161 294.586984 
L 341.57321 297.238196 
L 364.687309 302.711549 
L 371.291337 304.00648 
L 377.895365 305.072714 
L 384.499393 305.89698 
L 386.1504 306.06683 
L 386.1504 306.06683 
" clip-path="url(#p14beb03c06)" style="fill: none; stroke: #ff7f0e; stroke-width: 1.5; stroke-linecap: square"/>
   </g>
   <g id="line2d_15">
    <path d="M 62.139005 -1 
L 62.553021 63.478261 
L 64.204028 218.428349 
L 65.855035 283.144989 
L 67.506042 302.467948 
L 69.157049 306.450102 
L 70.808056 306.497023 
L 72.459063 305.417779 
L 75.761077 302.274973 
L 77.412084 301.325724 
L 79.063091 301.415577 
L 80.714098 302.41506 
L 82.365106 303.681622 
L 84.016113 304.642881 
L 85.66712 305.214012 
L 87.318127 305.540349 
L 88.969134 305.643506 
L 90.620141 305.50891 
L 95.573162 304.846619 
L 97.224169 304.700097 
L 98.875176 304.696105 
L 100.526183 304.926114 
L 103.828197 305.885216 
L 107.130211 306.910924 
L 108.781218 307.202661 
L 110.432225 307.206067 
L 112.083232 306.852406 
L 113.734239 306.160121 
L 115.385246 305.319135 
L 117.036253 304.645595 
L 118.68726 304.369229 
L 120.338267 304.46197 
L 123.640281 304.801219 
L 125.291288 304.857696 
L 126.942295 305.032142 
L 130.24431 305.688293 
L 131.895317 305.791924 
L 135.197331 305.683714 
L 136.848338 305.899537 
L 138.499345 306.235583 
L 140.150352 306.415066 
L 141.801359 306.32521 
L 145.103373 305.972158 
L 155.009415 306.068588 
L 159.962436 306.900165 
L 161.613443 306.83957 
L 164.915457 306.226791 
L 168.217471 305.59925 
L 169.868478 305.548076 
L 171.519485 305.865789 
L 174.821499 306.878625 
L 176.472507 307.001964 
L 178.123514 306.788611 
L 181.425528 306.121075 
L 183.076535 306.063857 
L 184.727542 306.280463 
L 189.680563 307.364342 
L 192.982577 307.565446 
L 206.190633 307.584 
L 386.1504 307.584 
L 386.1504 307.584 
" clip-path="url(#p14beb03c06)" style="fill: none; stroke: #1f77b4; stroke-width: 1.5; stroke-linecap: square"/>
   </g>
   <g id="patch_78">
    <path d="M 57.6 307.584 
L 57.6 41.472 
" style="fill: none; stroke: #000000; stroke-width: 0.8; stroke-linejoin: miter; stroke-linecap: square"/>
   </g>
   <g id="patch_79">
    <path d="M 414.72 307.584 
L 414.72 41.472 
" style="fill: none; stroke: #000000; stroke-width: 0.8; stroke-linejoin: miter; stroke-linecap: square"/>
   </g>
   <g id="patch_80">
    <path d="M 57.6 307.584 
L 414.72 307.584 
" style="fill: none; stroke: #000000; stroke-width: 0.8; stroke-linejoin: miter; stroke-linecap: square"/>
   </g>
   <g id="patch_81">
    <path d="M 57.6 41.472 
L 414.72 41.472 
" style="fill: none; stroke: #000000; stroke-width: 0.8; stroke-linejoin: miter; stroke-linecap: square"/>
   </g>
   <g id="text_15">
    <!-- Cloud Gap-Filled MODIS FSC (MOD10A1F) -->
    <g transform="translate(111.9225 35.472) scale(0.12 -0.12)">
     <defs>
      <path id="DejaVuSans-64" d="M 2906 2969 
L 2906 4863 
L 3481 4863 
L 3481 0 
L 2906 0 
L 2906 525 
Q 2725 213 2448 61 
Q 2172 -91 1784 -91 
Q 1150 -91 751 415 
Q 353 922 353 1747 
Q 353 2572 751 3078 
Q 1150 3584 1784 3584 
Q 2172 3584 2448 3432 
Q 2725 3281 2906 2969 
z
M 947 1747 
Q 947 1113 1208 752 
Q 1469 391 1925 391 
Q 2381 391 2643 752 
Q 2906 1113 2906 1747 
Q 2906 2381 2643 2742 
Q 2381 3103 1925 3103 
Q 1469 3103 1208 2742 
Q 947 2381 947 1747 
z
" transform="scale(0.015625)"/>
      <path id="DejaVuSans-47" d="M 3809 666 
L 3809 1919 
L 2778 1919 
L 2778 2438 
L 4434 2438 
L 4434 434 
Q 4069 175 3628 42 
Q 3188 -91 2688 -91 
Q 1594 -91 976 548 
Q 359 1188 359 2328 
Q 359 3472 976 4111 
Q 1594 4750 2688 4750 
Q 3144 4750 3555 4637 
Q 3966 4525 4313 4306 
L 4313 3634 
Q 3963 3931 3569 4081 
Q 3175 4231 2741 4231 
Q 1884 4231 1454 3753 
Q 1025 3275 1025 2328 
Q 1025 1384 1454 906 
Q 1884 428 2741 428 
Q 3075 428 3337 486 
Q 3600 544 3809 666 
z
" transform="scale(0.015625)"/>
      <path id="DejaVuSans-70" d="M 1159 525 
L 1159 -1331 
L 581 -1331 
L 581 3500 
L 1159 3500 
L 1159 2969 
Q 1341 3281 1617 3432 
Q 1894 3584 2278 3584 
Q 2916 3584 3314 3078 
Q 3713 2572 3713 1747 
Q 3713 922 3314 415 
Q 2916 -91 2278 -91 
Q 1894 -91 1617 61 
Q 1341 213 1159 525 
z
M 3116 1747 
Q 3116 2381 2855 2742 
Q 2594 3103 2138 3103 
Q 1681 3103 1420 2742 
Q 1159 2381 1159 1747 
Q 1159 1113 1420 752 
Q 1681 391 2138 391 
Q 2594 391 2855 752 
Q 3116 1113 3116 1747 
z
" transform="scale(0.015625)"/>
      <path id="DejaVuSans-2d" d="M 313 2009 
L 1997 2009 
L 1997 1497 
L 313 1497 
L 313 2009 
z
" transform="scale(0.015625)"/>
      <path id="DejaVuSans-4d" d="M 628 4666 
L 1569 4666 
L 2759 1491 
L 3956 4666 
L 4897 4666 
L 4897 0 
L 4281 0 
L 4281 4097 
L 3078 897 
L 2444 897 
L 1241 4097 
L 1241 0 
L 628 0 
L 628 4666 
z
" transform="scale(0.015625)"/>
      <path id="DejaVuSans-4f" d="M 2522 4238 
Q 1834 4238 1429 3725 
Q 1025 3213 1025 2328 
Q 1025 1447 1429 934 
Q 1834 422 2522 422 
Q 3209 422 3611 934 
Q 4013 1447 4013 2328 
Q 4013 3213 3611 3725 
Q 3209 4238 2522 4238 
z
M 2522 4750 
Q 3503 4750 4090 4092 
Q 4678 3434 4678 2328 
Q 4678 1225 4090 567 
Q 3503 -91 2522 -91 
Q 1538 -91 948 565 
Q 359 1222 359 2328 
Q 359 3434 948 4092 
Q 1538 4750 2522 4750 
z
" transform="scale(0.015625)"/>
      <path id="DejaVuSans-44" d="M 1259 4147 
L 1259 519 
L 2022 519 
Q 2988 519 3436 956 
Q 3884 1394 3884 2338 
Q 3884 3275 3436 3711 
Q 2988 4147 2022 4147 
L 1259 4147 
z
M 628 4666 
L 1925 4666 
Q 3281 4666 3915 4102 
Q 4550 3538 4550 2338 
Q 4550 1131 3912 565 
Q 3275 0 1925 0 
L 628 0 
L 628 4666 
z
" transform="scale(0.015625)"/>
      <path id="DejaVuSans-49" d="M 628 4666 
L 1259 4666 
L 1259 0 
L 628 0 
L 628 4666 
z
" transform="scale(0.015625)"/>
      <path id="DejaVuSans-28" d="M 1984 4856 
Q 1566 4138 1362 3434 
Q 1159 2731 1159 2009 
Q 1159 1288 1364 580 
Q 1569 -128 1984 -844 
L 1484 -844 
Q 1016 -109 783 600 
Q 550 1309 550 2009 
Q 550 2706 781 3412 
Q 1013 4119 1484 4856 
L 1984 4856 
z
" transform="scale(0.015625)"/>
      <path id="DejaVuSans-41" d="M 2188 4044 
L 1331 1722 
L 3047 1722 
L 2188 4044 
z
M 1831 4666 
L 2547 4666 
L 4325 0 
L 3669 0 
L 3244 1197 
L 1141 1197 
L 716 0 
L 50 0 
L 1831 4666 
z
" transform="scale(0.015625)"/>
      <path id="DejaVuSans-29" d="M 513 4856 
L 1013 4856 
Q 1481 4119 1714 3412 
Q 1947 2706 1947 2009 
Q 1947 1309 1714 600 
Q 1481 -109 1013 -844 
L 513 -844 
Q 928 -128 1133 580 
Q 1338 1288 1338 2009 
Q 1338 2731 1133 3434 
Q 928 4138 513 4856 
z
" transform="scale(0.015625)"/>
     </defs>
     <use xlink:href="#DejaVuSans-43"/>
     <use xlink:href="#DejaVuSans-6c" x="69.824219"/>
     <use xlink:href="#DejaVuSans-6f" x="97.607422"/>
     <use xlink:href="#DejaVuSans-75" x="158.789062"/>
     <use xlink:href="#DejaVuSans-64" x="222.167969"/>
     <use xlink:href="#DejaVuSans-20" x="285.644531"/>
     <use xlink:href="#DejaVuSans-47" x="317.431641"/>
     <use xlink:href="#DejaVuSans-61" x="394.921875"/>
     <use xlink:href="#DejaVuSans-70" x="456.201172"/>
     <use xlink:href="#DejaVuSans-2d" x="519.677734"/>
     <use xlink:href="#DejaVuSans-46" x="555.761719"/>
     <use xlink:href="#DejaVuSans-69" x="606.03125"/>
     <use xlink:href="#DejaVuSans-6c" x="633.814453"/>
     <use xlink:href="#DejaVuSans-6c" x="661.597656"/>
     <use xlink:href="#DejaVuSans-65" x="689.380859"/>
     <use xlink:href="#DejaVuSans-64" x="750.904297"/>
     <use xlink:href="#DejaVuSans-20" x="814.380859"/>
     <use xlink:href="#DejaVuSans-4d" x="846.167969"/>
     <use xlink:href="#DejaVuSans-4f" x="932.447266"/>
     <use xlink:href="#DejaVuSans-44" x="1011.158203"/>
     <use xlink:href="#DejaVuSans-49" x="1088.160156"/>
     <use xlink:href="#DejaVuSans-53" x="1117.652344"/>
     <use xlink:href="#DejaVuSans-20" x="1181.128906"/>
     <use xlink:href="#DejaVuSans-46" x="1212.916016"/>
     <use xlink:href="#DejaVuSans-53" x="1268.685547"/>
     <use xlink:href="#DejaVuSans-43" x="1332.162109"/>
     <use xlink:href="#DejaVuSans-20" x="1401.986328"/>
     <use xlink:href="#DejaVuSans-28" x="1433.773438"/>
     <use xlink:href="#DejaVuSans-4d" x="1472.787109"/>
     <use xlink:href="#DejaVuSans-4f" x="1559.066406"/>
     <use xlink:href="#DejaVuSans-44" x="1637.777344"/>
     <use xlink:href="#DejaVuSans-31" x="1714.779297"/>
     <use xlink:href="#DejaVuSans-30" x="1778.402344"/>
     <use xlink:href="#DejaVuSans-41" x="1842.025391"/>
     <use xlink:href="#DejaVuSans-31" x="1910.433594"/>
     <use xlink:href="#DejaVuSans-46" x="1974.056641"/>
     <use xlink:href="#DejaVuSans-29" x="2031.576172"/>
    </g>
   </g>
   <g id="legend_1">
    <g id="patch_82">
     <path d="M 262.568438 93.506375 
L 407.72 93.506375 
Q 409.72 93.506375 409.72 91.506375 
L 409.72 48.472 
Q 409.72 46.472 407.72 46.472 
L 262.568438 46.472 
Q 260.568438 46.472 260.568438 48.472 
L 260.568438 91.506375 
Q 260.568438 93.506375 262.568438 93.506375 
z
" style="fill: #ffffff; opacity: 0.8; stroke: #cccccc; stroke-linejoin: miter"/>
    </g>
    <g id="patch_83">
     <path d="M 264.568438 58.070438 
L 284.568438 58.070438 
L 284.568438 51.070438 
L 264.568438 51.070438 
z
" style="fill: #1f77b4; fill-opacity: 0.5; stroke: #000000; stroke-linejoin: miter"/>
    </g>
    <g id="text_16">
     <!-- No Snow -->
     <g transform="translate(292.568438 58.070438) scale(0.1 -0.1)">
      <defs>
       <path id="DejaVuSans-4e" d="M 628 4666 
L 1478 4666 
L 3547 763 
L 3547 4666 
L 4159 4666 
L 4159 0 
L 3309 0 
L 1241 3903 
L 1241 0 
L 628 0 
L 628 4666 
z
" transform="scale(0.015625)"/>
      </defs>
      <use xlink:href="#DejaVuSans-4e"/>
      <use xlink:href="#DejaVuSans-6f" x="74.804688"/>
      <use xlink:href="#DejaVuSans-20" x="135.986328"/>
      <use xlink:href="#DejaVuSans-53" x="167.773438"/>
      <use xlink:href="#DejaVuSans-6e" x="231.25"/>
      <use xlink:href="#DejaVuSans-6f" x="294.628906"/>
      <use xlink:href="#DejaVuSans-77" x="355.810547"/>
     </g>
    </g>
    <g id="patch_84">
     <path d="M 264.568438 72.748563 
L 284.568438 72.748563 
L 284.568438 65.748563 
L 264.568438 65.748563 
z
" style="fill: #ff7f0e; fill-opacity: 0.5; stroke: #000000; stroke-linejoin: miter"/>
    </g>
    <g id="text_17">
     <!-- Ground Snow -->
     <g transform="translate(292.568438 72.748563) scale(0.1 -0.1)">
      <use xlink:href="#DejaVuSans-47"/>
      <use xlink:href="#DejaVuSans-72" x="77.490234"/>
      <use xlink:href="#DejaVuSans-6f" x="116.353516"/>
      <use xlink:href="#DejaVuSans-75" x="177.535156"/>
      <use xlink:href="#DejaVuSans-6e" x="240.914062"/>
      <use xlink:href="#DejaVuSans-64" x="304.292969"/>
      <use xlink:href="#DejaVuSans-20" x="367.769531"/>
      <use xlink:href="#DejaVuSans-53" x="399.556641"/>
      <use xlink:href="#DejaVuSans-6e" x="463.033203"/>
      <use xlink:href="#DejaVuSans-6f" x="526.412109"/>
      <use xlink:href="#DejaVuSans-77" x="587.59375"/>
     </g>
    </g>
    <g id="patch_85">
     <path d="M 264.568438 87.426688 
L 284.568438 87.426688 
L 284.568438 80.426688 
L 264.568438 80.426688 
z
" style="fill: #2ca02c; fill-opacity: 0.5; stroke: #000000; stroke-linejoin: miter"/>
    </g>
    <g id="text_18">
     <!-- Ground+Canopy Snow -->
     <g transform="translate(292.568438 87.426688) scale(0.1 -0.1)">
      <defs>
       <path id="DejaVuSans-2b" d="M 2944 4013 
L 2944 2272 
L 4684 2272 
L 4684 1741 
L 2944 1741 
L 2944 0 
L 2419 0 
L 2419 1741 
L 678 1741 
L 678 2272 
L 2419 2272 
L 2419 4013 
L 2944 4013 
z
" transform="scale(0.015625)"/>
       <path id="DejaVuSans-79" d="M 2059 -325 
Q 1816 -950 1584 -1140 
Q 1353 -1331 966 -1331 
L 506 -1331 
L 506 -850 
L 844 -850 
Q 1081 -850 1212 -737 
Q 1344 -625 1503 -206 
L 1606 56 
L 191 3500 
L 800 3500 
L 1894 763 
L 2988 3500 
L 3597 3500 
L 2059 -325 
z
" transform="scale(0.015625)"/>
      </defs>
      <use xlink:href="#DejaVuSans-47"/>
      <use xlink:href="#DejaVuSans-72" x="77.490234"/>
      <use xlink:href="#DejaVuSans-6f" x="116.353516"/>
      <use xlink:href="#DejaVuSans-75" x="177.535156"/>
      <use xlink:href="#DejaVuSans-6e" x="240.914062"/>
      <use xlink:href="#DejaVuSans-64" x="304.292969"/>
      <use xlink:href="#DejaVuSans-2b" x="367.769531"/>
      <use xlink:href="#DejaVuSans-43" x="451.558594"/>
      <use xlink:href="#DejaVuSans-61" x="521.382812"/>
      <use xlink:href="#DejaVuSans-6e" x="582.662109"/>
      <use xlink:href="#DejaVuSans-6f" x="646.041016"/>
      <use xlink:href="#DejaVuSans-70" x="707.222656"/>
      <use xlink:href="#DejaVuSans-79" x="770.699219"/>
      <use xlink:href="#DejaVuSans-20" x="829.878906"/>
      <use xlink:href="#DejaVuSans-53" x="861.666016"/>
      <use xlink:href="#DejaVuSans-6e" x="925.142578"/>
      <use xlink:href="#DejaVuSans-6f" x="988.521484"/>
      <use xlink:href="#DejaVuSans-77" x="1049.703125"/>
     </g>
    </g>
   </g>
  </g>
 </g>
 <defs>
  <clipPath id="p14beb03c06">
   <rect x="57.6" y="41.472" width="357.12" height="266.112"/>
  </clipPath>
 </defs>
</svg>
